<svg width="25" height="25" viewBox="0 0 25 25" fill="none" xmlns="http://www.w3.org/2000/svg">
<path class="primary" d="M12.5 25C19.4036 25 25 19.4036 25 12.5C25 5.59644 19.4036 0 12.5 0C5.59644 0 0 5.59644 0 12.5C0 19.4036 5.59644 25 12.5 25Z" fill="#D6CAF7"/>
<path class= "dark" d="M19.1512 11.213H13.787V5.8488C13.787 5.13739 13.2114 4.56177 12.5 4.56177C11.7886 4.56177 11.2129 5.13739 11.2129 5.8488V11.213H5.84874C5.13732 11.213 4.56171 11.7886 4.56171 12.5C4.56171 13.2115 5.13732 13.7871 5.84874 13.7871H11.2129V19.1513C11.2129 19.8627 11.7886 20.4383 12.5 20.4383C13.2114 20.4383 13.787 19.8627 13.787 19.1513V13.7871H19.1512C19.8626 13.7871 20.4383 13.2115 20.4383 12.5C20.4383 11.7886 19.8626 11.213 19.1512 11.213Z" fill="#8461E5"/>
</svg>
