<svg width="40" height="40" viewBox="0 0 40 40" fill="none" xmlns="http://www.w3.org/2000/svg">
<path d="M20 40C31.0457 40 40 31.0457 40 20C40 8.9543 31.0457 0 20 0C8.9543 0 0 8.9543 0 20C0 31.0457 8.9543 40 20 40Z" fill="#4D4E52"/>
<path d="M30.642 17.9408H22.0593V9.35809C22.0593 8.21982 21.1383 7.29883 20.0001 7.29883C18.8618 7.29883 17.9408 8.21982 17.9408 9.35809V17.9408H9.35809C8.21982 17.9408 7.29883 18.8618 7.29883 20.0001C7.29883 21.1383 8.21982 22.0593 9.35809 22.0593H17.9408V30.642C17.9408 31.7803 18.8618 32.7013 20.0001 32.7013C21.1383 32.7013 22.0593 31.7803 22.0593 30.642V22.0593H30.642C31.7803 22.0593 32.7013 21.1383 32.7013 20.0001C32.7013 18.8618 31.7803 17.9408 30.642 17.9408Z" fill="#0F1015"/>
</svg>
