<svg width="27" height="26" viewBox="0 0 27 26" fill="none" xmlns="http://www.w3.org/2000/svg">
<path class ="dark" d="M14.2132 12.5914C16.1383 12.5914 17.6983 11.0125 17.6983 9.0634C17.6983 7.11426 16.1383 5.5354 14.2132 5.5354C12.288 5.5354 10.728 7.11426 10.728 9.0634C10.728 11.0125 12.288 12.5914 14.2132 12.5914Z" fill="#8461E5"/>
<path class ="dark" d="M20.4274 17.7412C21.1457 18.9926 20.0228 20.3126 18.5777 20.3126H9.84683C8.40341 20.3126 7.27883 18.9926 7.99712 17.7412C9.24169 15.576 11.5577 14.1189 14.2114 14.1189C16.8651 14.1189 19.1828 15.5743 20.4257 17.7412H20.4274Z" fill="#8461E5"/>
<path class ="dark" d="M5.604 12.5229H3.10286V10.0252C3.10286 9.69431 2.83372 9.42517 2.50286 9.42517C2.172 9.42517 1.90286 9.69431 1.90286 10.0252V12.5229H0.6C0.269143 12.5229 0 12.792 0 13.1229C0 13.4537 0.269143 13.7229 0.6 13.7229H1.90114V16.2206C1.90114 16.5515 2.17029 16.8206 2.50114 16.8206C2.832 16.8206 3.10114 16.5515 3.10114 16.2206V13.7229H5.60229C5.93315 13.7229 6.20229 13.4537 6.20229 13.1229C6.20229 12.792 5.93315 12.5229 5.60229 12.5229H5.604Z" fill="#8461E5"/>
<path class ="dark" d="M14.2149 25.5703C9.44571 25.5703 5.10513 22.944 2.88685 18.7183C2.73256 18.4252 2.8457 18.0617 3.13885 17.9074C3.43199 17.7532 3.79542 17.8663 3.94971 18.1594C5.95885 21.9892 9.89314 24.3686 14.2149 24.3686C20.6023 24.3686 25.8 19.1709 25.8 12.7834C25.8 6.396 20.6023 1.2 14.2149 1.2C9.65656 1.2 5.50456 3.888 3.63942 8.04858C3.50399 8.35029 3.14913 8.48572 2.84571 8.35029C2.54399 8.21486 2.40856 7.86 2.54399 7.55658C4.60285 2.96572 9.18514 0 14.2149 0C21.264 0 27 5.736 27 12.7851C27 19.8343 21.264 25.5703 14.2149 25.5703Z" fill="#8461E5"/>
</svg>
