<svg width="25" height="25" viewBox="0 0 25 25" fill="none" xmlns="http://www.w3.org/2000/svg">
<g clip-path="url(#clip0_197_1455)">
<path class="primary" d="M10.4651 12.733V15.1008H4.45736C3.70736 15.1008 3.10077 14.4978 3.10077 13.7522V13.3669H8.72092C9.38371 13.3669 9.99224 13.1299 10.4651 12.733Z" fill="#D6CAF7"/>
<path class="primary" d="M25 6.43114V20.4164C25 21.8421 23.8353 23 22.4012 23H16.2791C15.5291 23 14.9225 22.3969 14.9225 21.6513V21.266H20.5426C22.0388 21.266 23.2558 20.0561 23.2558 18.5688V5.08252H23.6434C24.3934 5.08252 25 5.68555 25 6.43114Z" fill="#D6CAF7"/>
<path class="secundary" d="M8.72093 2H1.35659C0.607366 2 0 2.6038 0 3.34862V10.6697C0 11.4145 0.607366 12.0183 1.35659 12.0183H8.72093C9.47015 12.0183 10.0775 11.4145 10.0775 10.6697V3.34862C10.0775 2.6038 9.47015 2 8.72093 2Z" fill="#AD96EE"/>
<path class="secundary" d="M20.5426 2H13.1783C12.4283 2 11.8217 2.60303 11.8217 3.34862V18.5688C11.8217 19.3144 12.4283 19.9174 13.1783 19.9174H20.5426C21.2926 19.9174 21.8992 19.3144 21.8992 18.5688V3.34862C21.8992 2.60303 21.2926 2 20.5426 2ZM14.4128 5.62972L14.4109 5.6278H14.4128V5.62972Z" fill="#AD96EE"/>
</g>
<defs>
<clipPath id="clip0_197_1455">
<rect width="25" height="21" fill="white" transform="translate(0 2)"/>
</clipPath>
</defs>
</svg>
