<svg width="25" height="25" viewBox="0 0 26 25" fill="none" xmlns="http://www.w3.org/2000/svg">
<path class="secundary" d="M10.3631 3.58069H1.61978V12.1613H10.3631V3.58069Z" class="secundary" fill="#8461E5"/>
<path class="secundary" d="M10.3631 13.7419H1.61977C0.729332 13.7419 0.00915527 13.0352 0.00915527 12.1613V3.58065C0.00915527 2.70677 0.729332 2 1.61977 2H10.3631C11.2536 2 11.9738 2.70677 11.9738 3.58065V12.1613C11.9738 13.0352 11.2536 13.7419 10.3631 13.7419ZM3.23039 10.5806H8.75252V5.16129H3.23039V10.5806Z" class="secundary" fill="#8461E5"/>
<path class="primary" d="M24.3985 3.58069H15.6552V21.4194H24.3985V3.58069Z" class="primary" fill="#AD96EE"/>
<path class="primary" d="M24.3985 23H15.6552C14.7647 23 14.0446 22.2932 14.0446 21.4194V3.58065C14.0446 2.70677 14.7647 2 15.6552 2H24.3985C25.289 2 26.0092 2.70677 26.0092 3.58065V21.4194C26.0092 22.2932 25.289 23 24.3985 23ZM17.2658 19.8387H22.7879V5.16129H17.2658V19.8387Z" class="primary" fill="#AD96EE"/>
</svg>
