<svg width="25" height="25" viewBox="0 0 25 25" fill="none" xmlns="http://www.w3.org/2000/svg">
<path d="M22.4407 3.65381H2.55932C1.69813 3.65381 1 4.3426 1 5.19227V23.4615C1 24.3112 1.69813 25 2.55932 25H22.4407C23.3019 25 24 24.3112 24 23.4615V5.19227C24 4.3426 23.3019 3.65381 22.4407 3.65381Z" class="primary" fill="#D6CAF7"/>
<path d="M22.6064 3.65381H2.39364C1.62396 3.65381 1 4.26942 1 5.02881V9.39419C1 10.1536 1.62396 10.7692 2.39364 10.7692H22.6064C23.376 10.7692 24 10.1536 24 9.39419V5.02881C24 4.26942 23.376 3.65381 22.6064 3.65381Z" class="secundary" fill="#AD96EE"/>
<path d="M5.90407 7.25192H5.89237C5.13805 7.24615 4.53381 6.70577 4.53966 6.04423L4.59034 1.18654C4.59814 0.528846 5.20627 0 5.95475 0H5.96644C6.72076 0.00576923 7.325 0.546154 7.31915 1.20769L7.26848 6.06538C7.26068 6.72308 6.65254 7.25192 5.90407 7.25192Z" class="dack" fill="#8461E5"/>
<path d="M18.7685 7.63657C18.0161 7.63657 17.4041 7.09618 17.4041 6.42887L17.3982 1.59426C17.3982 0.926951 18.0083 0.384644 18.7607 0.384644C19.5131 0.384644 20.1251 0.925028 20.1251 1.59234L20.1309 6.42695C20.1309 7.09426 19.5208 7.63657 18.7685 7.63657Z" class="dack" fill="#8461E5"/>
<path d="M4.80085 15.1923C5.71587 15.1923 6.45763 14.4605 6.45763 13.5577C6.45763 12.6549 5.71587 11.9231 4.80085 11.9231C3.88584 11.9231 3.14407 12.6549 3.14407 13.5577C3.14407 14.4605 3.88584 15.1923 4.80085 15.1923Z" class="secundary" fill="#AD96EE"/>
<path d="M12.9873 15.1923C13.9023 15.1923 14.6441 14.4605 14.6441 13.5577C14.6441 12.6549 13.9023 11.9231 12.9873 11.9231C12.0723 11.9231 11.3305 12.6549 11.3305 13.5577C11.3305 14.4605 12.0723 15.1923 12.9873 15.1923Z" class="secundary" fill="#AD96EE"/>
<path d="M8.89405 15.1923C9.80907 15.1923 10.5508 14.4605 10.5508 13.5577C10.5508 12.6549 9.80907 11.9231 8.89405 11.9231C7.97904 11.9231 7.23727 12.6549 7.23727 13.5577C7.23727 14.4605 7.97904 15.1923 8.89405 15.1923Z" class="secundary" fill="#AD96EE"/>
<path d="M4.80085 19.2308C5.71587 19.2308 6.45763 18.4989 6.45763 17.5962C6.45763 16.6934 5.71587 15.9615 4.80085 15.9615C3.88584 15.9615 3.14407 16.6934 3.14407 17.5962C3.14407 18.4989 3.88584 19.2308 4.80085 19.2308Z" class="secundary" fill="#AD96EE"/>
<path d="M8.89405 19.2308C9.80907 19.2308 10.5508 18.4989 10.5508 17.5962C10.5508 16.6934 9.80907 15.9615 8.89405 15.9615C7.97904 15.9615 7.23727 16.6934 7.23727 17.5962C7.23727 18.4989 7.97904 19.2308 8.89405 19.2308Z" class="secundary" fill="#AD96EE"/>
<path d="M4.80085 23.2692C5.71587 23.2692 6.45763 22.5374 6.45763 21.6346C6.45763 20.7318 5.71587 20 4.80085 20C3.88584 20 3.14407 20.7318 3.14407 21.6346C3.14407 22.5374 3.88584 23.2692 4.80085 23.2692Z"  class="secundary"  fill="#AD96EE"/>
</svg>
