<svg width="25" height="25" viewBox="0 0 25 25" fill="none" xmlns="http://www.w3.org/2000/svg">
<path d="M22.401 0H2.59903C1.16362 0 0 1.16362 0 2.59903V22.401C0 23.8364 1.16362 25 2.59903 25H22.401C23.8364 25 25 23.8364 25 22.401V2.59903C25 1.16362 23.8364 0 22.401 0Z" class="primary" fill="#D6CAF7"/>
<path d="M11.276 19.8571L5.12012 14.6932C4.5357 14.2029 4.4594 13.3328 4.94966 12.75C5.43992 12.1656 6.31005 12.0893 6.89285 12.5795L10.8019 15.8571L18.2094 5.83604C18.6623 5.22402 19.526 5.09415 20.1396 5.54707C20.7516 6 20.8815 6.86363 20.4286 7.47727L11.2776 19.8588L11.276 19.8571Z" class="dark" fill="#8461E5"/>
</svg>
