<svg width="25" height="25" viewBox="0 0 25 25" fill="none" xmlns="http://www.w3.org/2000/svg">
<path d="M12.5 25C19.4036 25 25 19.4036 25 12.5C25 5.59644 19.4036 0 12.5 0C5.59644 0 0 5.59644 0 12.5C0 19.4036 5.59644 25 12.5 25Z" class='primary' fill="#D6CAF7"/>
<path d="M18.708 13.9262H11.0872L10.9899 3.7752C10.9832 2.98829 11.6141 2.34231 12.4027 2.3356C13.1946 2.33057 13.8356 2.95976 13.8423 3.74835L13.9127 11.0755H18.708C19.495 11.0755 20.1342 11.7148 20.1342 12.5017C20.1342 13.2886 19.495 13.9279 18.708 13.9279V13.9262Z" class="dark" fill="#8461E5"/>
</svg>
