<svg width="25" height="25" viewBox="0 0 25 25" fill="none" xmlns="http://www.w3.org/2000/svg">
<path d="M25 11.9034V19.6559C25 21.2593 23.8016 22.5593 22.3234 22.5593H2.67656C1.19844 22.5593 0 21.2593 0 19.6559V11.9034C0 10.3 1.19844 9 2.67656 9H4.125C5.20312 9 6.175 9.70169 6.59219 10.7797L6.98125 11.7831C7.39844 12.861 8.37031 13.5627 9.44844 13.5627H15.3969C16.475 13.5627 17.4469 12.861 17.8641 11.7831L18.2531 10.7797C18.6703 9.70169 19.6422 9 20.7203 9H22.325C23.8031 9 25.0016 10.3 25.0016 11.9034H25Z" class="primary" fill="#D6CAF7"/>
<path d="M17.1109 4.04407C16.6813 3.65254 16.0406 3.71525 15.6797 4.18136L13.5234 6.97288V2.10169C13.5234 1.49322 13.0688 1 12.5078 1C11.9469 1 11.4922 1.49322 11.4922 2.10169V6.97966L9.32031 4.1678C8.95938 3.70169 8.31875 3.64068 7.88906 4.03051C7.45938 4.42203 7.40313 5.11525 7.7625 5.58305L10.8359 9.56271C11.2516 10.1 11.8641 10.4102 12.5109 10.4068C13.1516 10.4051 13.7594 10.0949 14.1719 9.56271L17.2359 5.59661C17.5969 5.13051 17.5391 4.43559 17.1094 4.04407H17.1109Z" class="dark" fill="#8461E5"/>
</svg>
