<svg width="25" height="25" viewBox="0 0 32 35" fill="none" xmlns="http://www.w3.org/2000/svg">
<path class= "dark" d="M27.095 25.4542C28.699 25.4542 30 24.1541 30 22.55V7.17258C30 3.38753 26.9325 0.320007 23.1482 0.320007H6.85257C3.06834 0.320007 0 3.38753 0 7.17258V27.5718C0 29.8796 1.14006 31.9216 2.88794 33.1641C3.00171 33.2445 3.11709 33.3217 3.23573 33.3948C4.28641 34.0498 5.52724 34.4285 6.85663 34.4285H28.3781C28.5146 34.4285 28.6511 34.4244 28.786 34.4163C30.4656 34.3179 30.3722 31.8022 28.6901 31.8022H26.141V25.4542H27.095ZM22.3235 25.4542V31.8022H6.98096C4.86091 31.8022 3.382 30.086 3.79479 28.0066C3.91993 27.3792 4.22872 26.8186 4.66426 26.3838C5.23877 25.8093 6.03185 25.4542 6.90864 25.4542H22.3235Z" fill="#4794FF"/>
<path class= "primary" d="M22.3238 25.4542V31.8022H6.98127C4.86123 31.8022 3.38231 30.086 3.79511 28.0066C3.92025 27.3792 4.22903 26.8186 4.66458 26.3838C5.23908 25.8093 6.03217 25.4542 6.90895 25.4542H22.3238Z" fill="#99C3FF"/>
</svg>
