<svg width="25" height="26" viewBox="0 0 25 26" fill="none" xmlns="http://www.w3.org/2000/svg">
<path d="M8.99353 9.6537C8.99353 8.58479 8.11909 7.71826 7.04041 7.71826C5.96172 7.71826 5.08728 8.58479 5.08728 9.6537V18.5567C5.08728 19.6256 5.96172 20.4921 7.04041 20.4921C8.11909 20.4921 8.99353 19.6256 8.99353 18.5567V9.6537Z" class="primary" fill="#D6CAF7"/>
<path d="M14.4623 4.42799C14.4623 3.35908 13.5878 2.49255 12.5092 2.49255C11.4305 2.49255 10.556 3.35908 10.556 4.42799V18.5567C10.556 19.6256 11.4305 20.4921 12.5092 20.4921C13.5878 20.4921 14.4623 19.6256 14.4623 18.5567V4.42799Z" class="primary" fill="#D6CAF7"/>
<path d="M19.931 9.6537C19.931 8.58479 19.0566 7.71826 17.9779 7.71826C16.8992 7.71826 16.0248 8.58479 16.0248 9.6537V18.5567C16.0248 19.6256 16.8992 20.4921 17.9779 20.4921C19.0566 20.4921 19.931 19.6256 19.931 18.5567V9.6537Z" class="primary" fill="#D6CAF7"/>
<path d="M23.3939 25.1701H2.4115C1.08533 25.1701 0.00915527 24.1037 0.00915527 22.7895V1.77069C0.00915527 0.946199 0.636108 0.226218 1.46814 0.173961C2.3783 0.115898 3.13416 0.830073 3.13416 1.71844V19.6928C3.13416 21.007 4.21033 22.0734 5.5365 22.0734H23.4467C24.3431 22.0734 25.0638 22.8224 25.0052 23.7243C24.9506 24.5469 24.224 25.1701 23.392 25.1701H23.3939Z" class="dark" fill="#8461E5"/>
</svg>
