<svg width="25" height="25" viewBox="0 0 25 25" fill="none" xmlns="http://www.w3.org/2000/svg">
<path d="M12.5 25C19.4036 25 25 19.4036 25 12.5C25 5.59644 19.4036 0 12.5 0C5.59644 0 0 5.59644 0 12.5C0 19.4036 5.59644 25 12.5 25Z" class="primary" fill="#D6CAF7"/>
<path d="M7.5815 14.4233L8.77159 10.3738H6.16616C5.54795 10.3738 5.23964 10.0479 5.23964 9.39771C5.23964 8.9041 5.72048 8.6565 6.68373 8.6565H9.26041C9.42974 7.90251 9.68693 6.87375 10.032 5.57184C10.2205 4.97279 10.6007 4.67407 11.1741 4.67407C11.3882 4.67407 11.5655 4.76033 11.7061 4.93286C11.8467 5.10538 11.9154 5.29548 11.9154 5.50315C11.9154 5.76353 11.8307 6.19324 11.6614 6.79069C11.3754 7.82583 11.2093 8.44723 11.163 8.6549H15.8962C16.1182 7.86736 16.4202 6.81624 16.8035 5.50315C16.9729 4.95043 17.2924 4.67407 17.7604 4.67407C18.3067 4.67407 18.5799 4.92807 18.5799 5.43605C18.5799 5.87854 18.3099 6.95203 17.77 8.6565H19.6726C20.3355 8.6565 20.6678 8.90091 20.6678 9.38813C20.6678 10.0718 20.3003 10.4121 19.5655 10.4121C19.4681 10.4121 19.3163 10.4057 19.1118 10.3929C18.9074 10.3801 18.7556 10.3738 18.6582 10.3738H17.2333L16.1981 14.4233H18.1885C18.663 14.4233 18.9984 14.4584 19.1933 14.5303C19.532 14.6613 19.7013 14.9201 19.7013 15.3115C19.7013 15.9105 19.4186 16.2092 18.8515 16.2092H15.7093L14.8307 19.3817C14.655 20.0127 14.2908 20.329 13.738 20.329C13.1853 20.329 12.9377 20.0718 12.9377 19.5575C12.9377 19.1741 13.0448 18.6134 13.2604 17.8785C13.5591 16.8578 13.7189 16.3003 13.738 16.2092H8.85786C8.66297 16.9712 8.32111 18.0894 7.8323 19.567C7.6438 20.0287 7.32431 20.2603 6.87543 20.2603C6.35466 20.2603 6.09428 20.0031 6.09428 19.4888C6.09428 19.2348 6.16936 18.8674 6.31952 18.3865C6.54635 17.6581 6.77479 16.9329 7.00322 16.2108H5.13901C4.59907 16.2108 4.3291 15.8881 4.3291 15.2444C4.3291 14.9904 4.43933 14.7859 4.66137 14.6293C4.84987 14.492 5.0783 14.4249 5.34508 14.4249H7.5799L7.5815 14.4233ZM9.40578 14.4233H14.286L15.3882 10.3738H10.6262L9.40578 14.4233Z" class="dark" fill="#8461E5"/>
</svg>
