<svg width="25" height="25" viewBox="0 0 25 25" fill="none" xmlns="http://www.w3.org/2000/svg">
<path d="M12.2131 10.5806C6.62875 10.5806 3.52013 5.88641 0.9244 6.06723C2.11013 11.2935 6.78174 15.1949 12.3661 15.1949C17.9505 15.1949 22.6204 11.2935 23.8078 6.06723C21.0817 5.88641 17.7992 10.5806 12.2149 10.5806H12.2131Z" class="secundary" fill="#AD96EE"/>
<path d="M2.65083 12.3765C2.44916 12.999 2.20054 13.597 1.89976 14.1673C1.75545 14.4385 1.73111 14.8193 1.42512 14.9775C1.06001 15.1774 0.70534 15.2296 0.228964 15.16C0.164636 15.1496 0.115955 15.1044 0.0985692 15.0453C-0.0370415 14.5846 -0.0335643 14.2247 0.114217 13.837C0.228964 13.5136 0.602763 13.4354 0.851383 13.2563C1.3747 12.879 1.93279 12.5504 2.52044 12.2653C2.59172 12.2288 2.67691 12.3035 2.65083 12.38V12.3765Z" class="secundary" fill="#AD96EE"/>
<path d="M7.0634 15.2384C6.99733 15.8608 6.88259 16.471 6.70873 17.0622C6.62527 17.3421 6.68091 17.7089 6.41838 17.9089C6.10195 18.161 5.77162 18.2653 5.3022 18.2757C5.23787 18.2757 5.18224 18.2409 5.15094 18.1888C4.92666 17.775 4.8519 17.436 4.91449 17.0378C4.95796 16.711 5.30394 16.5771 5.50562 16.3667C5.93331 15.9216 6.40447 15.52 6.91214 15.1549C6.97647 15.108 7.07209 15.1636 7.0634 15.2419V15.2384Z" class="secundary" fill="#AD96EE"/>
<path d="M11.9176 16.7127C12.1697 17.1525 12.3783 17.6081 12.5261 18.081C12.5904 18.2983 12.8269 18.5208 12.6999 18.7642C12.5383 19.0824 12.3035 19.2615 11.9176 19.4475C11.8602 19.4736 11.7976 19.4718 11.7437 19.4475C11.3577 19.2615 11.123 19.0806 10.9613 18.7642C10.8344 18.5208 11.0709 18.2983 11.1352 18.081C11.283 17.6081 11.4899 17.1543 11.7437 16.7127C11.7802 16.6483 11.8811 16.6483 11.9176 16.7127Z" class="secundary" fill="#AD96EE"/>
<path d="M22.4796 12.2689C23.0689 12.554 23.627 12.8826 24.1486 13.2599C24.3972 13.4407 24.771 13.5172 24.8858 13.8406C25.0336 14.23 25.037 14.5881 24.9014 15.0489C24.8823 15.1097 24.8301 15.1532 24.771 15.1636C24.2946 15.2349 23.94 15.1828 23.5749 14.9811C23.2689 14.8229 23.2445 14.4421 23.1002 14.1709C22.7977 13.6006 22.5508 13.0025 22.3492 12.3801C22.3231 12.3036 22.41 12.2306 22.4796 12.2654V12.2689Z" class="secundary" fill="#AD96EE"/>
<path d="M18.0878 15.1584C18.5955 15.5235 19.0667 15.9269 19.4944 16.3702C19.6961 16.5806 20.042 16.7144 20.0855 17.0413C20.1481 17.4412 20.0733 17.7785 19.849 18.1923C19.8178 18.2479 19.7586 18.2792 19.6978 18.2792C19.2266 18.2688 18.8963 18.1662 18.5816 17.9123C18.3191 17.7124 18.3747 17.3456 18.2913 17.0656C18.1174 16.4745 18.0027 15.866 17.9366 15.2419C17.9279 15.1636 18.0235 15.108 18.0878 15.1549V15.1584Z" class="secundary" fill="#AD96EE"/>
</svg>
