<svg width="23" height="23" viewBox="0 0 23 23" fill="none" xmlns="http://www.w3.org/2000/svg">
<path class="secundary" d="M23.0091 7.80747V19.0643C23.0091 21.2511 21.2338 23.0169 19.0581 22.9999L16.7615 22.9809C15.8286 22.9733 15.0769 22.2109 15.0769 21.2739V16.5701C15.0769 14.6678 13.6038 13.0461 11.7095 12.9797C9.72261 12.9095 8.08894 14.5065 8.08894 16.4867V21.1866C8.08894 22.135 7.32027 22.9012 6.37595 22.8937L3.89617 22.8728C1.72802 22.8576 -0.0132972 21.0747 0.00936639 18.8974L0.130239 7.76005C0.145348 6.3034 0.961238 4.97573 2.24929 4.3062L9.70372 0.438868C10.8237 -0.141516 12.1533 -0.147206 13.277 0.427488L20.8655 4.29861C22.18 4.97004 23.0091 6.32616 23.0091 7.80747Z" fill="#AD96EE"/>
</svg>
