<svg width="25" height="25" viewBox="0 0 25 25" fill="none" xmlns="http://www.w3.org/2000/svg">
<path d="M23.4874 19.3659H11.9657C11.1244 19.3659 10.4439 18.6788 10.4439 17.8293C10.4439 16.9798 11.1244 16.2927 11.9657 16.2927H23.4874C24.3287 16.2927 25.0092 16.9798 25.0092 17.8293C25.0092 18.6788 24.3287 19.3659 23.4874 19.3659Z" class="primary" fill="#AD96EE"/>
<path d="M23.4874 7.07317H11.9657C11.1244 7.07317 10.4439 6.3861 10.4439 5.53659C10.4439 4.68707 11.1244 4 11.9657 4H23.4874C24.3287 4 25.0092 4.68707 25.0092 5.53659C25.0092 6.3861 24.3287 7.07317 23.4874 7.07317Z" class="primary" fill="#AD96EE"/>
<path d="M18.27 12.122H11.9657C11.1244 12.122 10.4439 11.4349 10.4439 10.5854C10.4439 9.7359 11.1244 9.04883 11.9657 9.04883H18.27C19.1113 9.04883 19.7918 9.7359 19.7918 10.5854C19.7918 11.4349 19.1113 12.122 18.27 12.122Z" class="primary" fill="#AD96EE"/>
<path d="M6.5309 4H1.53089C0.690461 4 0.00915527 4.68795 0.00915527 5.53659V10.5854C0.00915527 11.434 0.690461 12.122 1.53089 12.122H6.5309C7.37133 12.122 8.05263 11.434 8.05263 10.5854V5.53659C8.05263 4.68795 7.37133 4 6.5309 4Z" class="dark" fill="#8461E5"/>
<path d="M6.5309 13.8781H1.53089C0.690461 13.8781 0.00915527 14.566 0.00915527 15.4146V20.4634C0.00915527 21.3121 0.690461 22 1.53089 22H6.5309C7.37133 22 8.05263 21.3121 8.05263 20.4634V15.4146C8.05263 14.566 7.37133 13.8781 6.5309 13.8781Z" class="dark" fill="#8461E5"/>
</svg>
