<svg width="123" height="29" viewBox="0 0 123 29" fill="none" xmlns="http://www.w3.org/2000/svg">
<path d="M7.81988 7.07163L7.53051 7.10564L7.46494 7.8939C7.46494 7.89883 7.46297 7.9294 7.45903 7.98165V7.98362C7.4541 7.99151 7.45015 7.99891 7.44572 8.00679L7.45804 7.99447C7.4467 8.15469 7.42501 8.48744 7.42057 8.84485C7.4186 8.97499 7.41959 9.09675 7.42255 9.20866L7.04887 8.96562L5.75482 8.12412L5.6582 8.904C5.34861 8.35187 4.92959 7.86383 4.42676 7.47586L4.53077 6.55401C4.53077 6.54809 4.53176 6.54316 4.53176 6.53774V6.53675L4.53275 6.52886C4.53768 6.4633 4.54359 6.39773 4.55099 6.33315L4.57613 6.11329L5.07009 1.44238L5.19924 1.6095C6.13638 2.82172 6.54358 4.36078 6.32815 5.87913L7.2362 4.24246L7.2924 4.32183C7.86178 5.13425 8.04123 6.13794 7.81939 7.07311L7.81988 7.07163Z" fill="#CCBFED"/>
<path d="M26.3525 7.55476C25.8679 7.9378 25.4617 8.4145 25.1605 8.95233L25.0639 8.17245L23.7698 9.01395L23.3474 9.28903C23.3607 8.95628 23.3552 8.53528 23.3183 8.0009L23.3242 8.00681C23.3222 8.00287 23.3202 8.0009 23.3183 7.99695V7.99597C23.3143 7.94864 23.3114 7.90132 23.3074 7.85202L23.2468 7.03763L22.9362 7.00953C22.7356 6.0926 22.919 5.11504 23.4765 4.31988L23.5327 4.24051L24.4408 5.87717C24.2253 4.35931 24.633 2.81976 25.5697 1.60755L25.6988 1.44043L26.1928 6.11134L26.2179 6.3312C26.2248 6.39578 26.2312 6.46135 26.2362 6.52691L26.2372 6.5348V6.53578C26.2372 6.5417 26.2381 6.54663 26.2381 6.55205L26.352 7.55377L26.3525 7.55476Z" fill="#CCBFED"/>
<path d="M27.3762 8.02404L27.3654 8.02996C27.2111 8.12066 27.0632 8.22221 26.9251 8.33215C26.7669 8.45835 26.62 8.59638 26.4859 8.74526C26.0807 9.19485 25.7874 9.74205 25.6385 10.3415L25.2737 11.8189L25.1337 12.3883V12.3893L24.9927 12.9587L24.7881 13.7879L24.6994 13.0716L24.6377 12.5786L24.5771 12.0856L24.2951 9.82339L22.9469 10.7009H22.9459L22.3425 11.0928L22.3405 11.0948L22.1921 11.1914C21.3265 11.7548 20.7512 12.6397 20.5688 13.6212C20.5357 13.7987 20.5155 13.9782 20.5091 14.1606C20.5022 14.3287 20.5081 14.4992 20.5254 14.6703C20.5303 14.7265 20.5377 14.7822 20.5456 14.8384L20.8803 17.1139L19.9792 14.8798L19.7987 14.4332L19.6183 13.9855L19.2698 13.1238L19.2274 13.0188L18.7398 13.3826L18.2059 13.7815L17.5952 14.2379C16.8059 14.8285 16.3233 15.6661 16.165 16.5559L16.5491 16.2577L17.322 15.6572L17.9116 16.4391C17.9269 16.4593 19.4768 18.516 20.9681 20.6382C21.85 21.8928 22.5411 22.9285 23.0238 23.7158C23.8874 25.1267 24.092 25.7133 23.8904 26.2531L25.1209 26.2743L27.8085 16.5618C27.8125 16.5505 27.8164 16.5386 27.8199 16.5263L27.7967 16.6111L27.8258 16.5096C27.8672 16.3765 27.9066 16.2424 27.9446 16.1073L28.0698 15.6528L30.8171 6.01074L27.3747 8.02601L27.3762 8.02404ZM23.5197 15.8179C23.0139 15.3402 22.7467 14.5944 22.7092 13.8327C22.7004 13.6592 22.7043 13.4852 22.7191 13.3136C22.7344 13.1263 22.7645 12.9409 22.8088 12.7625C22.8907 12.4248 23.0223 12.1103 23.2007 11.8426C23.3447 12.0403 23.465 12.2518 23.5616 12.4736C23.6272 12.6205 23.6814 12.7728 23.7267 12.9271C23.7721 13.0834 23.8066 13.2417 23.8317 13.4029C23.9619 14.2143 23.846 15.0745 23.5202 15.8174L23.5197 15.8179ZM26.5692 13.217C26.4504 12.9784 26.3779 12.7152 26.3484 12.4391C26.3301 12.272 26.3262 12.1004 26.337 11.9274C26.3484 11.746 26.3745 11.5626 26.4164 11.3812C26.478 11.1031 26.5727 10.83 26.6944 10.5722C26.8083 10.3331 26.9473 10.1068 27.1046 9.90522C27.2367 9.73712 27.3826 9.58676 27.5399 9.45957C27.5744 9.43049 27.6104 9.40239 27.6468 9.37675C27.7952 9.90177 27.809 10.4519 27.7124 10.9853C27.6478 11.3511 27.532 11.709 27.3728 12.0467C27.1692 12.479 26.896 12.8788 26.5697 13.2165L26.5692 13.217Z" fill="#CCBFED"/>
<path d="M17.1426 17.0188L16.1532 17.7878L15.3773 18.3902L13.7204 19.6779C14.2212 19.1386 14.5284 18.4938 14.6496 17.8248C14.6837 17.6375 14.7029 17.4487 14.7073 17.2594C14.7142 17.0449 14.7014 16.831 14.6699 16.6185C14.5338 15.6863 14.0443 14.8034 13.2225 14.1877L12.5555 13.6898L12.0152 13.2865V13.2855L11.5908 12.969L11.5079 13.1736L11.1771 13.9949L10.9967 14.4425L10.8163 14.8892L9.93831 17.0646L10.2721 14.7891C10.277 14.7551 10.2819 14.7206 10.2854 14.6865C10.3056 14.5165 10.3144 14.3479 10.3105 14.1798C10.3075 13.9993 10.2913 13.8199 10.2612 13.6439C10.1059 12.7028 9.58929 11.8451 8.80398 11.2648L8.80201 11.2638L7.78402 10.5929L7.78304 10.5919L6.52251 9.77359L6.23412 12.1014L6.1725 12.5934L6.11186 13.0864L6.03102 13.7376L5.84467 12.9838L5.70467 12.4135L5.56368 11.8431L5.18064 10.2912C5.02831 9.67253 4.7202 9.11005 4.29378 8.65257C4.15871 8.50665 4.0118 8.37256 3.85356 8.25228C3.72736 8.15171 3.59376 8.06199 3.45425 7.98016L3.40298 7.95009L0 5.95996L2.74733 15.602L2.87255 16.0565C2.90903 16.1916 2.94994 16.3257 2.99135 16.4588L3.02044 16.5603L2.99727 16.4755C3.00121 16.4879 3.00516 16.4997 3.00861 16.511L5.69629 26.2236L6.8947 26.2034L7.40345 26.1945H7.40444L13.9777 26.0806L22.9818 25.9263C23.2934 25.1765 17.1421 17.0188 17.1421 17.0188H17.1426ZM4.07934 14.547C3.12593 13.5596 2.62113 12.0496 3.00121 10.7068C3.02833 10.726 3.05544 10.7462 3.08107 10.7684C3.23833 10.8921 3.38524 11.0386 3.51735 11.2037C3.64208 11.357 3.75497 11.5261 3.85307 11.7055C3.96103 11.9013 4.05272 12.1108 4.12519 12.3262C4.37808 13.076 4.39928 13.9042 4.07885 14.547H4.07934ZM7.12788 17.147C6.63096 16.0141 6.62209 14.6077 7.22943 13.5152C7.29401 13.3964 7.36746 13.2816 7.44732 13.1716C7.55528 13.3328 7.64599 13.5113 7.71846 13.7026C8.14685 14.8221 7.96839 16.3538 7.12788 17.147ZM12.2691 18.1516V18.1526C12.0453 19.0074 11.5153 19.8125 10.7966 20.1842C10.7966 20.1842 10.7956 20.1842 10.7956 20.1852H10.7946C10.7591 20.2024 10.7241 20.2197 10.6876 20.2364C10.6684 19.9924 10.6723 19.7444 10.6965 19.496C10.8074 18.3612 11.3655 17.2387 12.307 16.5919C12.3554 16.7792 12.3815 16.9759 12.3869 17.1805C12.3958 17.497 12.3539 17.8273 12.2691 18.1512V18.1516Z" fill="#CCBFED"/>
<path d="M22.3457 7.92353L21.1019 7.81064L20.5671 7.76135L20.3526 7.74212C20.9501 7.36746 21.1971 6.67188 21.0477 6.04186C20.9861 5.78009 20.8554 5.53114 20.6538 5.32015L20.5054 5.16486L17.943 6.98787L18.5809 6.00735C18.9043 5.50945 19.0635 4.94401 19.0635 4.38005C19.0635 3.66179 18.8047 2.94797 18.2999 2.38549L17.5944 4.11976C17.6265 2.5881 17.0364 1.10771 15.9607 0.0172536L15.9435 0L15.8799 4.28195V4.30808L15.8838 4.56393L15.8848 4.78478C15.8848 4.85035 15.8868 4.91591 15.8897 4.98148L15.8907 5.03078V4.99035C15.8907 4.99627 15.8907 5.00169 15.8917 5.00761L15.9573 13.7638L18.4532 12.2814L19.0112 11.9506L19.1754 11.853L19.1813 11.8491L19.5944 11.6041L19.6792 11.5538L21.8468 10.2661L21.8527 10.2622L22.2727 9.98909C22.4724 9.59914 22.3472 7.92403 22.3472 7.92403L22.3457 7.92353ZM18.2274 4.72415C18.4581 5.39114 18.0179 6.01327 17.3105 6.00883C17.0758 5.34085 17.521 4.72316 18.2274 4.72415ZM18.7564 7.92255C18.6455 7.22302 19.1927 6.69505 19.8872 6.82125C19.9952 7.5188 19.452 8.05269 18.7564 7.92255ZM21.2858 9.40393C21.2626 9.45125 21.2365 9.49661 21.2094 9.53999C20.922 10.0024 20.4295 10.3169 19.8902 10.3835C19.73 10.4037 19.5668 10.4017 19.4027 10.3756C19.5254 9.95753 19.7975 9.61393 20.1466 9.38717C20.2037 9.35069 20.2614 9.31667 20.3221 9.2866C20.4492 9.22202 20.5853 9.17272 20.7253 9.1397C20.9422 9.08843 21.1719 9.07807 21.4007 9.11357C21.3706 9.21512 21.3312 9.31125 21.2848 9.40294L21.2858 9.40393Z" fill="#CCBFED"/>
<path d="M14.8488 0L14.8326 0.0162674C13.7554 1.10672 13.1658 2.58711 13.1979 4.11878L12.4934 2.3845C11.5844 3.39707 11.4444 4.88288 12.1469 6.04778L12.8917 7.28316L10.0793 5.0924L9.9975 5.19641C9.82102 5.42121 9.70911 5.6741 9.65883 5.93489V5.93587C9.52573 6.61617 9.8082 7.34577 10.4397 7.74163L10.208 7.76874L9.67904 7.82839L8.42739 7.97234C8.42739 7.97234 8.30464 9.45963 8.48063 9.89493L9.15255 10.3322C9.2122 10.3716 9.27234 10.4121 9.33002 10.454L9.33495 10.4579L11.1289 11.536L11.1663 11.5582L11.75 11.9097L11.9344 12.0206H11.9354L12.309 12.2444V12.2454L14.8365 13.7633L14.9021 5.00711C14.9021 5.0012 14.9031 4.99577 14.9031 4.98986V4.98098C14.906 4.91542 14.908 4.84985 14.908 4.78429L14.91 4.56344L14.9139 4.28146V4.25829L14.8493 0.000492701L14.8488 0ZM10.8484 10.2578C10.3273 10.2247 9.84172 9.95852 9.52721 9.54837C9.49615 9.50794 9.46657 9.46653 9.43946 9.42365C9.35269 9.28759 9.2822 9.13822 9.23487 8.978C9.55432 8.9287 9.87376 8.96913 10.1622 9.08399C10.2859 9.1323 10.4022 9.19392 10.5127 9.26737L10.5851 9.24716C10.5851 9.24716 10.594 9.27921 10.6093 9.33688C10.9006 9.55971 11.1254 9.87176 11.2339 10.239C11.1047 10.2602 10.9751 10.2651 10.8489 10.2573L10.8484 10.2578ZM10.7488 6.68617C11.4429 6.55899 11.9911 7.08745 11.8797 7.78649C11.1841 7.91663 10.6403 7.38324 10.7488 6.68617ZM13.3256 5.87326C12.6172 5.87721 12.1779 5.25557 12.4086 4.58858C13.1141 4.58661 13.5592 5.20529 13.3256 5.87326Z" fill="#CCBFED"/>
<path d="M25.1417 27.0078H5.67773V28.2895H25.1417V27.0078Z" fill="#CCBFED"/>
<path d="M52.1952 5.21981V4.8291H47.083L39.7245 13.0229V4.8291H35.8174V23.1605H39.7245V17.3999L42.3559 14.8294L48.0927 23.1605H52.5859V22.7697L45.1903 12.0608L52.1952 5.21981Z" fill="#CCBFED"/>
<path d="M59.1962 15.4764H66.4896V12.2856H59.1962V8.18238H68.8016V4.8291H55.3535V23.1605H69.1594V20.0025H59.1962V15.4764Z" fill="#CCBFED"/>
<path d="M71.3076 8.18238H76.4849V23.1605H80.425V8.18238H85.6345V4.8291H71.3076V8.18238Z" fill="#CCBFED"/>
<path d="M93.091 15.4764H100.385V12.2856H93.091V8.18238H102.696V4.8291H89.249V23.1605H103.055V20.0025H93.091V15.4764Z" fill="#CCBFED"/>
<path d="M120.963 20.5392C120.659 20.4642 120.436 20.2906 120.295 20.0196C120.154 19.7486 120.045 19.416 119.97 19.0267C119.894 18.636 119.817 18.2348 119.741 17.821C119.666 17.4092 119.54 17.0122 119.367 16.6334C119.193 16.2532 118.944 15.9486 118.618 15.7211C118.293 15.4935 117.838 15.3794 117.251 15.3794C118.098 15.3794 118.831 15.1728 119.449 14.7611C120.067 14.348 120.539 13.7619 120.866 13.0015C121.191 12.2424 121.354 11.342 121.354 10.2994C121.354 8.95428 121.044 7.88507 120.425 7.09314C119.807 6.30121 118.932 5.72424 117.804 5.36643C116.675 5.00863 115.307 4.83008 113.702 4.83008H106.603V23.1621H110.543V15.7379C111.694 15.672 112.633 15.6552 113.359 15.6881C114.087 15.7211 114.662 15.8184 115.086 15.9815C115.508 16.1433 115.822 16.3722 116.029 16.6642C116.236 16.9576 116.366 17.328 116.42 17.7727C116.474 18.2173 116.501 18.7326 116.501 19.318C116.501 20.4474 116.702 21.3325 117.104 21.9718C117.505 22.6125 118.01 23.041 118.617 23.2581C119.224 23.4751 119.855 23.5185 120.505 23.3883C121.156 23.2581 121.732 22.9766 122.232 22.5403V20.327C121.688 20.5441 121.266 20.6148 120.962 20.5385L120.963 20.5392ZM113.789 15.3359C113.381 11.1214 113.048 10.7902 108.835 10.3813C113.048 9.97238 113.381 9.64118 113.789 5.42665C114.198 9.64118 114.53 9.97238 118.743 10.3813C114.53 10.7902 114.198 11.1214 113.789 15.3359Z" fill="#CCBFED"/>
</svg>
