<svg width="26" height="24" viewBox="0 0 26 24" fill="none" xmlns="http://www.w3.org/2000/svg">
<path d="M9.18784 17.4263C14 17.4263 17.901 13.5253 17.901 8.71316C17.901 3.90101 14 0 9.18784 0C4.37569 0 0.47467 3.90101 0.47467 8.71316C0.47467 13.5253 4.37569 17.4263 9.18784 17.4263Z" class="secundary" fill="#AD96EE"/>
<path d="M24.9296 20.947L19.3734 15.6433C18.6662 14.969 17.5474 14.9942 16.8731 15.7014C16.1988 16.4085 16.224 17.5274 16.9312 18.2017L22.4874 23.5053C22.8309 23.8311 23.2678 23.9953 23.7073 23.9953C24.1745 23.9953 24.6392 23.8109 24.9852 23.4473C25.6595 22.7401 25.6343 21.6213 24.9271 20.947H24.9296Z"  class="secundary" fill="#AD96EE"/>
</svg>
