<svg width="25" height="25" viewBox="0 0 25 25" fill="none" xmlns="http://www.w3.org/2000/svg">
<g clip-path="url(#clip0_372_3187)">
<path d="M13.0009 3C7.14361 3 2.24367 7.06057 1 12.5C2.24367 17.9394 7.14361 22 13.0009 22C18.8582 22 23.7563 17.9394 25.0018 12.5C23.7563 7.06057 18.8582 3 13.0009 3Z" class="primary"/>
<path d="M13.0465 18.6524C16.4959 18.6524 19.2922 15.8777 19.2922 12.4548C19.2922 9.03197 16.4959 6.2572 13.0465 6.2572C9.59708 6.2572 6.80077 9.03197 6.80077 12.4548C6.80077 15.8777 9.59708 18.6524 13.0465 18.6524Z" class="dark"/>
<path d="M17.8388 15.8204C19.6235 15.8204 21.0702 14.3848 21.0702 12.6139C21.0702 10.8431 19.6235 9.40747 17.8388 9.40747C16.0542 9.40747 14.6075 10.8431 14.6075 12.6139C14.6075 14.3848 16.0542 15.8204 17.8388 15.8204Z" class="primary"/>
</g>
<defs>
<clipPath id="clip0_372_3187">
<rect width="24" height="19" fill="white" transform="translate(1 3)"/>
</clipPath>
</defs>
</svg>
