<svg width="25" height="25" viewBox="0 0 25 25" fill="none" xmlns="http://www.w3.org/2000/svg">
<path d="M10.8456 13.8311C10.6344 13.601 10.343 13.4688 10.0385 13.4654L5.1877 13.3932C4.88156 13.3846 4.58525 13.5134 4.36751 13.7384C4.14978 13.9651 4.02699 14.2725 4.02699 14.5936V21.1193C4.02699 21.7839 4.53941 22.3214 5.17297 22.3214H9.90912C10.5345 22.3214 11.0436 21.7976 11.0551 21.1416L11.1697 14.6881C11.1746 14.3686 11.06 14.0595 10.8472 13.8294L10.8456 13.8311Z" class="primary" fill="#D6CAF7"/>
<path d="M9.99465 3.57141H2.52365C1.8746 3.57141 1.34843 4.10953 1.34843 4.77333V11.2981C1.34843 11.9619 1.8746 12.5 2.52365 12.5H9.99465C10.6437 12.5 11.1699 11.9619 11.1699 11.2981V4.77333C11.1699 4.10953 10.6437 3.57141 9.99465 3.57141Z" class="primary" fill="#D6CAF7"/>
<path d="M22.5144 3.57141H15.0039C14.3651 3.57141 13.8484 4.10884 13.8484 4.77333C13.8484 5.43783 14.3651 5.97526 15.0039 5.97526V10.0961C14.3651 10.0961 13.8484 10.6336 13.8484 11.2981C13.8484 11.9626 14.3651 12.5 15.0039 12.5H22.5144C23.1532 12.5 23.6699 11.9626 23.6699 11.2981V4.77333C23.6699 4.10884 23.1532 3.57141 22.5144 3.57141Z" class="primary" fill="#D6CAF7"/>
<path d="M14.2949 0C13.5544 0 12.9556 0.528716 12.9556 1.18243V23.8176C12.9556 24.4713 13.5544 25 14.2949 25C15.0353 25 15.6342 24.4713 15.6342 23.8176V1.18243C15.6342 0.528716 15.0353 0 14.2949 0Z" class="dark" fill="#8461E5"/>
</svg>
