<svg width="25" height="25" viewBox="0 0 25 25" fill="none" xmlns="http://www.w3.org/2000/svg">
<g clip-path="url(#clip0_197_1457)">
<path d="M8.68068 11.8447C8.08702 12.292 7.35168 12.5586 6.55535 12.5586C4.59502 12.5586 3.00595 10.952 3.00595 8.96967C3.00595 6.98737 4.59502 5.38257 6.55535 5.38257C6.83693 5.38257 7.11134 5.41656 7.3732 5.47918C7.07188 6.16976 6.90329 6.9337 6.90329 7.73699C6.90329 9.35611 7.58842 10.8178 8.68068 11.8447Z" class="secundary" fill="#D6CAF7"/>
<path d="M7.90946 14.2403C6.10876 15.1366 4.56991 16.5554 3.53325 18.3606C3.15661 19.0136 3.02568 19.7256 3.14406 20.4108H2.11098C0.64029 20.4108 -0.503982 19.069 0.227778 17.7952C1.49401 15.5928 3.85429 14.1133 6.55535 14.1133C7.01808 14.1133 7.47184 14.1562 7.90946 14.2403Z" class="secundary" fill="#D6CAF7"/>
<path d="M21.9582 9.19156C21.9582 11.1971 20.3512 12.8216 18.3675 12.8216C17.5013 12.8216 16.7049 12.5121 16.0844 11.995C17.2735 10.9645 18.0286 9.43666 18.0286 7.73704C18.0286 6.99457 17.8851 6.2861 17.625 5.63845C17.8653 5.58836 18.1128 5.56152 18.3675 5.56152C20.3512 5.56152 21.9582 7.18601 21.9582 9.19156Z" class="secundary" fill="#D6CAF7"/>
<path d="M22.8657 20.7687H21.7035C21.9438 19.9761 21.8416 19.1281 21.3986 18.3606C20.4408 16.6932 19.0598 15.3585 17.4331 14.455C17.7398 14.4157 18.0519 14.396 18.3675 14.396C21.1009 14.396 23.4898 15.8935 24.7704 18.1226C25.5112 19.4108 24.3525 20.7687 22.8657 20.7687Z" class="secundary" fill="#D6CAF7"/>
<path d="M16.9524 7.73705C16.9524 9.1218 16.339 10.3616 15.3705 11.1918C14.5886 11.8662 13.5734 12.2724 12.465 12.2724C11.2939 12.2724 10.2267 11.8179 9.43038 11.0737C8.5372 10.2471 7.97941 9.05739 7.97941 7.73705C7.97941 7.07867 8.11931 6.45249 8.3704 5.88715C9.06808 4.30202 10.6392 3.19995 12.465 3.19995C14.2908 3.19995 15.9516 4.36464 16.6188 6.02133C16.8341 6.55089 16.9524 7.13055 16.9524 7.73705Z" class="secundary" fill="#D6CAF7"/>
<path d="M20.5538 20.7687C20.1539 21.5971 19.1926 22.2 18.0842 22.2H6.84769C5.58505 22.2 4.51252 21.4182 4.24528 20.4109C4.11615 19.935 4.16816 19.4108 4.46589 18.8938C5.57967 16.9598 7.35885 15.4641 9.48777 14.7324C10.4222 14.4121 11.423 14.2368 12.465 14.2368C13.6398 14.2368 14.7625 14.4587 15.7956 14.8612H15.7974C17.7685 15.6323 19.415 17.0671 20.466 18.8938C20.839 19.5432 20.8265 20.207 20.5538 20.7687Z" class="secundary" fill="#D6CAF7"/>
</g>
<defs>
<clipPath id="clip0_197_1457">
<rect width="25" height="19" fill="white" transform="translate(0 3.19995)"/>
</clipPath>
</defs>
</svg>
