<svg width="30" height="30" viewBox="0 0 30 30" fill="none" xmlns="http://www.w3.org/2000/svg">
<path d="M29.1708 9.86017V24.0765C29.1708 26.8384 26.9192 29.0684 24.1597 29.0469L21.247 29.0229C20.0637 29.0133 19.1103 28.0504 19.1103 26.8671V20.9267C19.1103 18.5241 17.242 16.4761 14.8394 16.3923C12.3195 16.3036 10.2476 18.3205 10.2476 20.8213V26.7569C10.2476 27.9546 9.27266 28.9223 8.07498 28.9127L4.9299 28.8864C2.18004 28.8672 -0.0284667 26.6156 0.000277429 23.8657L0.153579 9.80028C0.172742 7.96066 1.20753 6.28392 2.84116 5.43836L12.2956 0.554253C13.716 -0.178723 15.4023 -0.185909 16.8276 0.539881L26.4521 5.42878C28.1192 6.27673 29.1708 7.9894 29.1708 9.86017Z" fill="#D6CAF7"/>
</svg>
