<svg width="23" height="32" viewBox="0 0 23 32" fill="none" xmlns="http://www.w3.org/2000/svg">
<path d="M20.0658 24.1714H2.13904C0.857533 24.1714 0 23.1223 0 22.0228C0 21.515 0.184442 20.9976 0.589255 20.5688C2.12467 18.9496 2.9822 16.8081 2.9822 14.5781V10.4748C2.9822 8.25914 3.88046 6.25186 5.33443 4.80028C6.29497 3.83735 7.49982 3.11874 8.8508 2.74507C8.82445 2.60135 8.80768 2.44805 8.80768 2.29474C8.80768 1.02761 9.83289 0 11.1024 0C12.372 0 13.3972 1.02761 13.3972 2.29474C13.3972 2.46721 13.378 2.63489 13.3421 2.79298C16.5878 3.77507 18.9711 6.76205 19.0382 10.3263L19.1172 14.6379C19.1604 16.8321 20.0299 18.9304 21.5533 20.5113L21.5988 20.5568C22.9043 21.9102 21.9438 24.169 20.0634 24.169L20.0658 24.1714Z" fill="#D6CAF7"/>
<path d="M15.6467 26.685C15.6467 29.2193 13.5915 31.2745 11.0573 31.2745C8.52298 31.2745 6.46777 29.2193 6.46777 26.685C6.46777 26.4766 6.48215 26.273 6.51089 26.0742H15.6036C15.6324 26.273 15.6467 26.479 15.6467 26.685Z" fill="#D6CAF7"/>
</svg>
