<svg width="29" height="21" viewBox="0 0 29 21" fill="none" xmlns="http://www.w3.org/2000/svg">
<path d="M28.8615 3.46128C28.3944 1.47793 26.6123 0 24.4828 0H4.50085C2.01688 0 0 2.01688 0 4.50085V16.0129C0 17.6896 0.917417 19.1508 2.27558 19.9245C2.9319 20.3005 3.69123 20.5137 4.50085 20.5137H24.4828C26.9692 20.5137 28.9837 18.4992 28.9837 16.0129V4.50085C28.9837 4.14395 28.9429 3.79423 28.8615 3.46128ZM9.53587 13.4906C9.18854 13.8355 8.70947 14.0511 8.1801 14.0511H4.34755C3.28881 14.0511 2.43127 13.1936 2.43127 12.1348C2.43127 11.6054 2.64446 11.1264 2.99179 10.779C3.33911 10.4341 3.81818 10.2185 4.34755 10.2185H8.1801C9.23884 10.2185 10.0964 11.0761 10.0964 12.1348C10.0964 12.6642 9.88319 13.1433 9.53587 13.4906ZM15.0452 7.50222C14.6978 7.84715 14.2188 8.06273 13.6894 8.06273H4.34755C3.28881 8.06273 2.43127 7.2052 2.43127 6.14645C2.43127 5.61708 2.64446 5.13801 2.99179 4.79069C3.33911 4.44576 3.81818 4.23018 4.34755 4.23018H13.6894C14.7481 4.23018 15.6057 5.08771 15.6057 6.14645C15.6057 6.67583 15.3925 7.1549 15.0452 7.50222Z" fill="#D6CAF7"/>
</svg>
