<svg width="31" height="26" viewBox="0 0 31 26" fill="none" xmlns="http://www.w3.org/2000/svg">
<path d="M12.1322 13.9536V16.7154H5.16651C4.297 16.7154 3.59277 16.0112 3.59277 15.1417V14.6913H10.1081C10.877 14.6913 11.5812 14.4159 12.1298 13.9512L12.1322 13.9536Z" fill="#D6CAF7"/>
<path d="M30.1811 6.11096V21.9705C30.1811 23.7575 28.7319 25.209 26.9426 25.209H20.2955C19.3039 25.209 18.499 24.4042 18.499 23.4125C18.499 23.288 18.5996 23.1874 18.7242 23.1874H24.7916C26.6528 23.1874 28.1618 21.6783 28.1618 19.8171V4.53961C28.1618 4.41505 28.2624 4.31445 28.387 4.31445C29.3787 4.31445 30.1835 5.11929 30.1835 6.11096H30.1811Z" fill="#D6CAF7"/>
<path d="M8.94182 0H2.74267C1.22794 0 0 1.22793 0 2.74267V8.94182C0 10.4566 1.22794 11.6845 2.74267 11.6845H8.94182C10.4566 11.6845 11.6845 10.4566 11.6845 8.94182V2.74267C11.6845 1.22793 10.4566 0 8.94182 0Z" fill="#D6CAF7"/>
<path d="M22.6148 0H16.4779C14.9473 0 13.7041 1.24079 13.7041 2.77381V18.1232C13.7041 19.6538 14.9449 20.897 16.4779 20.897H22.6148C24.1454 20.897 25.3886 19.6562 25.3886 18.1232V2.77381C25.3886 1.24318 24.1478 0 22.6148 0Z" fill="#D6CAF7"/>
</svg>
