<svg width="50" height="50" viewBox="0 0 50 50" fill="none" xmlns="http://www.w3.org/2000/svg">
<rect x="0.75" y="0.75" width="48.5" height="48.5" rx="23.25" stroke="#8461E5" stroke-width="1.5"/>
<path d="M16.6279 17.1956L16.3086 17.2331L16.2363 18.1028C16.2363 18.1082 16.2341 18.1419 16.2297 18.1996V18.2018C16.2243 18.2105 16.2199 18.2186 16.215 18.2273L16.2286 18.2137C16.2161 18.3905 16.1922 18.7576 16.1873 19.1519C16.1851 19.2955 16.1862 19.4298 16.1895 19.5533L15.7772 19.2852L14.3495 18.3568L14.2429 19.2172C13.9013 18.608 13.439 18.0696 12.8843 17.6415L12.999 16.6245C12.999 16.618 13.0001 16.6125 13.0001 16.6065V16.6054L13.0012 16.5967C13.0067 16.5244 13.0132 16.4521 13.0213 16.3808L13.0491 16.1382L13.594 10.9849L13.7365 11.1693C14.7705 12.5067 15.2197 14.2047 14.982 15.8799L15.9839 14.0742L16.0459 14.1618C16.6741 15.0581 16.8721 16.1654 16.6273 17.1972L16.6279 17.1956Z" fill="#8461E5"/>
<path d="M37.0738 17.7294C36.5392 18.152 36.091 18.6779 35.7587 19.2713L35.6521 18.4109L34.2244 19.3393L33.7583 19.6428C33.773 19.2756 33.767 18.8112 33.7262 18.2216L33.7327 18.2281C33.7306 18.2238 33.7284 18.2216 33.7262 18.2172V18.2161C33.7219 18.1639 33.7186 18.1117 33.7143 18.0573L33.6474 17.1588L33.3047 17.1278C33.0833 16.1162 33.2857 15.0377 33.9008 14.1604L33.9628 14.0728L34.9647 15.8785C34.727 14.2039 35.1768 12.5053 36.2102 11.1679L36.3526 10.9835L36.8976 16.1369L36.9254 16.3794C36.933 16.4507 36.94 16.523 36.9455 16.5954L36.9466 16.6041V16.6051C36.9466 16.6117 36.9477 16.6171 36.9477 16.6231L37.0733 17.7283L37.0738 17.7294Z" fill="#8461E5"/>
<path d="M38.2035 18.2464L38.1916 18.2529C38.0213 18.353 37.8582 18.465 37.7059 18.5863C37.5313 18.7255 37.3692 18.8778 37.2213 19.0421C36.7742 19.5381 36.4506 20.1418 36.2863 20.8032L35.8839 22.4332L35.7294 23.0614V23.0625L35.5739 23.6907L35.3481 24.6055L35.2502 23.8152L35.1823 23.2714L35.1154 22.7275L34.8043 20.2316L33.3167 21.1997H33.3156L32.6499 21.6321L32.6477 21.6343L32.484 21.7409C31.529 22.3625 30.8943 23.3388 30.693 24.4217C30.6566 24.6175 30.6343 24.8155 30.6272 25.0167C30.6196 25.2022 30.6261 25.3903 30.6452 25.5791C30.6506 25.6411 30.6587 25.7025 30.6675 25.7645L31.0368 28.2751L30.0425 25.8102L29.8435 25.3175L29.6444 24.8236L29.2599 23.8729L29.2131 23.757L28.6752 24.1584L28.0862 24.5984L27.4123 25.1021C26.5415 25.7537 26.0091 26.6777 25.8345 27.6594L26.2582 27.3304L27.111 26.6679L27.7615 27.5305C27.7783 27.5528 29.4883 29.8219 31.1336 32.1634C32.1066 33.5476 32.8691 34.6903 33.4016 35.5588C34.3545 37.1155 34.5802 37.7627 34.3577 38.3582L35.7153 38.3816L38.6805 27.666C38.6849 27.6535 38.6892 27.6404 38.693 27.6268L38.6675 27.7204L38.6996 27.6083C38.7453 27.4615 38.7888 27.3135 38.8306 27.1645L38.9688 26.663L41.9999 16.0252L38.2019 18.2486L38.2035 18.2464ZM33.9487 26.8452C33.3907 26.3182 33.0959 25.4953 33.0546 24.655C33.0448 24.4636 33.0491 24.2716 33.0654 24.0823C33.0823 23.8756 33.1155 23.6711 33.1644 23.4742C33.2547 23.1017 33.3999 22.7547 33.5968 22.4593C33.7556 22.6774 33.8883 22.9108 33.995 23.1555C34.0673 23.3176 34.1271 23.4856 34.1772 23.6559C34.2272 23.8283 34.2653 24.0029 34.293 24.1807C34.4366 25.076 34.3088 26.0251 33.9493 26.8447L33.9487 26.8452ZM37.3132 23.9757C37.1821 23.7124 37.1022 23.422 37.0695 23.1174C37.0494 22.9331 37.0451 22.7438 37.057 22.5529C37.0695 22.3527 37.0984 22.1504 37.1446 21.9503C37.2126 21.6435 37.317 21.3422 37.4514 21.0577C37.577 20.794 37.7304 20.5443 37.9039 20.3219C38.0496 20.1364 38.2106 19.9705 38.3841 19.8302C38.4222 19.7981 38.4619 19.7671 38.5021 19.7388C38.6659 20.318 38.6811 20.925 38.5745 21.5135C38.5032 21.9171 38.3754 22.3119 38.1997 22.6845C37.9751 23.1615 37.6738 23.6026 37.3137 23.9751L37.3132 23.9757Z" fill="#8461E5"/>
<path d="M26.9131 28.1701L25.8215 29.0186L24.9655 29.6832L23.1375 31.1039C23.69 30.5088 24.0289 29.7974 24.1627 29.0594C24.2002 28.8527 24.2214 28.6444 24.2263 28.4356C24.2339 28.199 24.2198 27.9629 24.185 27.7285C24.0349 26.7 23.4948 25.7259 22.5881 25.0466L21.8523 24.4973L21.2562 24.0524V24.0513L20.7879 23.7021L20.6965 23.9278L20.3315 24.8339L20.1325 25.3278L19.9334 25.8205L18.9648 28.2207L19.333 25.7101C19.3384 25.6726 19.3438 25.6345 19.3477 25.597C19.37 25.4094 19.3797 25.2234 19.3754 25.0379C19.3721 24.8388 19.3542 24.6409 19.321 24.4467C19.1497 23.4084 18.5797 22.462 17.7133 21.8219L17.7111 21.8208L16.588 21.0806L16.5869 21.0795L15.1962 20.1766L14.878 22.7449L14.81 23.2877L14.7431 23.8315L14.6539 24.55L14.4483 23.7184L14.2939 23.0891L14.1383 22.4599L13.7157 20.7477C13.5476 20.0651 13.2077 19.4446 12.7373 18.9398C12.5882 18.7788 12.4262 18.6309 12.2516 18.4982C12.1123 18.3872 11.9649 18.2883 11.811 18.198L11.7545 18.1648L8 15.9691L11.0311 26.607L11.1692 27.1085C11.2095 27.2575 11.2546 27.4054 11.3003 27.5523L11.3324 27.6643L11.3068 27.5708C11.3112 27.5844 11.3155 27.5974 11.3193 27.6099L14.2846 38.3256L15.6068 38.3033L16.1681 38.2935H16.1692L23.4214 38.1679L33.3555 37.9976C33.6992 37.1704 26.9126 28.1701 26.9126 28.1701H26.9131ZM12.5007 25.4431C11.4488 24.3537 10.8918 22.6878 11.3112 21.2062C11.3411 21.2274 11.371 21.2497 11.3993 21.2742C11.5728 21.4107 11.7349 21.5722 11.8806 21.7544C12.0182 21.9236 12.1428 22.1101 12.251 22.3081C12.3701 22.524 12.4713 22.7552 12.5512 22.9929C12.8303 23.8201 12.8536 24.7339 12.5001 25.4431H12.5007ZM15.8641 28.3115C15.3158 27.0617 15.306 25.51 15.9761 24.3047C16.0473 24.1737 16.1284 24.0469 16.2165 23.9256C16.3356 24.1035 16.4357 24.3004 16.5156 24.5114C16.9883 25.7466 16.7914 27.4364 15.8641 28.3115ZM21.5363 29.42V29.4211C21.2893 30.3642 20.7047 31.2523 19.9117 31.6624C19.9117 31.6624 19.9106 31.6624 19.9106 31.6635H19.9095C19.8703 31.6826 19.8317 31.7016 19.7915 31.7201C19.7703 31.4509 19.7746 31.1773 19.8013 30.9032C19.9236 29.6511 20.5393 28.4127 21.5781 27.6991C21.6314 27.9058 21.6603 28.1228 21.6662 28.3485C21.676 28.6977 21.6298 29.0621 21.5363 29.4194V29.42Z" fill="#8461E5"/>
<path d="M32.6532 18.1361L31.2809 18.0116L30.6908 17.9572L30.4542 17.936C31.1134 17.5226 31.3859 16.7552 31.2211 16.0601C31.1531 15.7713 31.009 15.4966 30.7865 15.2638L30.6228 15.0925L27.7957 17.1038L28.4995 16.022C28.8563 15.4727 29.032 14.8489 29.032 14.2266C29.032 13.4342 28.7464 12.6467 28.1895 12.0261L27.4112 13.9395C27.4465 12.2496 26.7955 10.6163 25.6087 9.41325L25.5897 9.39421L25.5195 14.1184V14.1472L25.5239 14.4295L25.525 14.6732C25.525 14.7455 25.5271 14.8179 25.5304 14.8902L25.5315 14.9446V14.9C25.5315 14.9065 25.5315 14.9125 25.5326 14.919L25.6049 24.5795L28.3586 22.9441L28.9743 22.5791L29.1554 22.4714L29.1619 22.4671L29.6177 22.1968L29.7113 22.1413L32.1027 20.7207L32.1093 20.7163L32.5727 20.415C32.7929 19.9848 32.6548 18.1366 32.6548 18.1366L32.6532 18.1361ZM28.1095 14.6063C28.3641 15.3422 27.8784 16.0285 27.0979 16.0236C26.839 15.2867 27.3301 14.6052 28.1095 14.6063ZM28.6931 18.135C28.5707 17.3632 29.1745 16.7807 29.9408 16.92C30.0599 17.6896 29.4605 18.2786 28.6931 18.135ZM31.4838 19.7694C31.4582 19.8216 31.4294 19.8716 31.3995 19.9195C31.0824 20.4297 30.5391 20.7767 29.9441 20.8501C29.7673 20.8724 29.5873 20.8702 29.4061 20.8414C29.5416 20.3802 29.8418 20.0011 30.2269 19.7509C30.29 19.7107 30.3536 19.6731 30.4205 19.64C30.5608 19.5687 30.7109 19.5143 30.8654 19.4779C31.1047 19.4213 31.3582 19.4099 31.6105 19.449C31.5773 19.5611 31.5338 19.6671 31.4827 19.7683L31.4838 19.7694Z" fill="#8461E5"/>
<path d="M24.3826 9.39421L24.3646 9.41216C23.1762 10.6152 22.5257 12.2485 22.5611 13.9384L21.7839 12.025C20.7809 13.1421 20.6265 14.7814 21.4015 16.0666L22.2233 17.4296L19.1205 15.0126L19.0302 15.1273C18.8355 15.3753 18.712 15.6543 18.6565 15.9421V15.9432C18.5097 16.6937 18.8213 17.4987 19.518 17.9354L19.2624 17.9653L18.6788 18.0311L17.2979 18.1899C17.2979 18.1899 17.1625 19.8309 17.3566 20.3111L18.098 20.7935C18.1638 20.837 18.2301 20.8816 18.2938 20.9279L18.2992 20.9322L20.2784 22.1217L20.3197 22.1462L20.9637 22.534L21.1671 22.6563H21.1682L21.5805 22.9033V22.9044L24.369 24.579L24.4413 14.9185C24.4413 14.9119 24.4424 14.906 24.4424 14.8994V14.8896C24.4457 14.8173 24.4478 14.745 24.4478 14.6726L24.45 14.429L24.4544 14.1179V14.0923L24.3831 9.39475L24.3826 9.39421ZM19.9689 20.7114C19.394 20.675 18.8583 20.3813 18.5113 19.9288C18.477 19.8842 18.4444 19.8385 18.4145 19.7912C18.3188 19.641 18.241 19.4762 18.1888 19.2995C18.5412 19.2451 18.8937 19.2897 19.2118 19.4164C19.3484 19.4697 19.4767 19.5377 19.5985 19.6187L19.6785 19.5964C19.6785 19.5964 19.6883 19.6318 19.7051 19.6954C20.0266 19.9413 20.2746 20.2855 20.3942 20.6907C20.2517 20.7141 20.1087 20.7196 19.9695 20.7109L19.9689 20.7114ZM19.8591 16.7709C20.6249 16.6306 21.2297 17.2137 21.1067 17.9849C20.3393 18.1285 19.7394 17.54 19.8591 16.7709ZM22.702 15.8741C21.9204 15.8784 21.4358 15.1926 21.6903 14.4567C22.4686 14.4545 22.9598 15.1371 22.702 15.8741Z" fill="#8461E5"/>
<path d="M35.7384 39.1917H14.2642V40.6058H35.7384V39.1917Z" fill="#8461E5"/>
</svg>
